<?xml version="1.0" encoding="iso-8859-1"?>

<!DOCTYPE svg PUBLIC "-//W3C//DTD SVG 1.1//EN" "http://www.w3.org/Graphics/SVG/1.1/DTD/svg11.dtd">
<!-- Uploaded to: SVG Repo, www.svgrepo.com, Generator: SVG Repo Mixer Tools -->
<svg height="800px" width="800px" version="1.1" id="_x34_" xmlns="http://www.w3.org/2000/svg" xmlns:xlink="http://www.w3.org/1999/xlink" 
	 viewBox="0 0 512 512"  xml:space="preserve">
<g>
	<g>
		<g>
			<g>
				<polygon style="fill:#59AED3;" points="236.065,345.134 193.183,353.739 191.462,354.097 171.814,317.813 151.09,279.377 
					135.744,251.124 128.215,237.141 84.258,155.823 0,0 53.351,7.243 116.312,123.769 158.046,200.856 164.572,212.903 
					196.912,272.708 206.378,290.205 231.189,336.098 231.189,336.17 231.26,336.17 				"/>
				<polygon style="fill:#FFFFFF;" points="280.919,336.202 236.089,345.138 53.369,7.209 106.928,14.426 259.094,295.819 				"/>
				<polygon style="fill:#E26377;" points="325.557,327.207 280.954,336.17 280.883,336.027 259.083,295.798 256,290.062 
					231.26,244.311 231.117,244.096 201.214,188.737 194.832,176.977 148.581,91.5 106.918,14.413 160.269,21.584 180.706,59.375 
					237.857,164.93 244.67,177.551 254.781,196.195 256,198.561 280.74,244.311 283.106,248.686 290.779,262.812 294.508,269.696 
					305.622,290.205 312.65,303.184 				"/>
			</g>
			<g>
				<polygon style="fill:#59AED3;" points="512,0 510.135,3.442 383.785,237.141 383.713,237.284 376.256,251.124 360.91,279.377 
					340.186,317.813 320.538,354.097 318.817,353.739 275.935,345.134 280.74,336.242 280.883,336.027 305.622,290.205 
					315.088,272.708 347.428,212.903 353.954,200.856 458.649,7.243 507.339,0.646 				"/>
				<polygon style="fill:#FFFFFF;" points="458.649,7.243 353.954,200.856 347.428,212.903 315.088,272.708 305.622,290.205 
					280.883,336.027 280.74,336.242 275.935,345.134 256,341.118 231.26,336.17 231.117,336.17 231.189,336.098 252.917,295.798 
					256,290.062 280.74,244.311 280.883,244.096 310.785,188.737 317.167,176.977 405.082,14.413 				"/>
				<polygon style="fill:#E26377;" points="405.082,14.413 317.167,176.977 310.785,188.737 280.883,244.096 280.74,244.311 
					256,290.062 252.917,295.798 231.189,336.098 231.117,336.17 186.442,327.207 199.35,303.184 206.378,290.205 217.492,269.696 
					221.221,262.812 228.894,248.686 231.26,244.311 256,198.561 257.219,196.195 267.33,177.551 274.142,164.93 351.731,21.584 
									"/>
			</g>
		</g>
		<path style="fill:#F2D58E;" d="M404.007,311.789c0,81.748-66.259,148.007-148.007,148.007c-25.242,0-49.049-6.31-69.844-17.497
			c-25.744-13.768-46.898-34.922-60.666-60.665c-11.187-20.796-17.497-44.603-17.497-69.845c0-27.249,7.314-52.706,20.222-74.648
			c7.96-13.625,18.071-25.887,29.831-36.285c10.972-9.752,23.305-17.784,36.787-23.879c13.41-6.095,27.823-10.254,43.025-12.047
			c5.952-0.789,11.976-1.147,18.143-1.147c2.079,0,4.159,0.071,6.239,0.143c0.932,0.072,1.936,0.143,2.868,0.215
			c3.012,0.072,6.023,0.358,8.964,0.789h0.071c15.202,1.793,29.616,5.952,43.025,12.047c13.481,6.096,25.815,14.127,36.786,23.879
			c11.76,10.398,21.871,22.66,29.831,36.285c5.665,9.609,10.254,19.935,13.553,30.763c0.43,1.506,0.932,3.083,1.362,4.661
			c0.431,1.577,0.861,3.155,1.219,4.733c0.43,1.793,0.861,3.585,1.219,5.45c0.43,2.151,0.86,4.303,1.147,6.526
			c0.359,2.438,0.717,4.876,0.932,7.386c0.287,2.51,0.502,5.02,0.574,7.529C403.935,306.698,404.007,309.208,404.007,311.789z"/>
		<path style="fill:#E6BF7B;" d="M256.007,446.525c-74.299,0-134.736-60.438-134.736-134.73s60.438-134.736,134.736-134.736
			c74.286,0,134.724,60.444,134.724,134.736S330.292,446.525,256.007,446.525z"/>
		<g style="opacity:0.5;">
			<linearGradient id="SVGID_1_" gradientUnits="userSpaceOnUse" x1="134.8072" y1="308.9319" x2="377.1929" y2="308.9319">
				<stop  offset="0.4926" style="stop-color:#F5E5BB"/>
				<stop  offset="0.9901" style="stop-color:#F5E0AF"/>
			</linearGradient>
			<polygon style="fill:url(#SVGID_1_);" points="255.994,384.819 181.087,424.194 195.4,340.791 134.807,281.725 218.54,269.553 
				255.994,193.669 293.434,269.553 377.193,281.725 316.587,340.791 330.887,424.194 			"/>
		</g>
	</g>
	<path style="opacity:0.08;fill:#040000;" d="M383.785,237.141l-0.072,0.144c5.593,9.609,10.182,19.791,13.625,30.619
		c0.43,1.506,0.932,3.083,1.362,4.661c0.431,1.577,0.861,3.155,1.219,4.733c0.43,1.793,0.861,3.585,1.219,5.45
		c0.43,2.151,0.86,4.303,1.147,6.526c0.359,2.438,0.717,4.876,0.932,7.386c0.287,2.51,0.502,5.02,0.574,7.529
		c0.143,2.51,0.215,5.02,0.215,7.601c0,81.748-66.259,148.007-148.007,148.007V163.783c2.079,0,4.159,0.071,6.239,0.143
		c0.932,0.072,1.936,0.143,2.868,0.215c3.012,0.215,5.952,0.502,8.964,0.86v-0.072h0.071l77.589-143.346l53.351-7.171l53.567-7.171
		l48.69-6.597L512,0l-1.865,3.442L383.785,237.141z"/>
</g>
</svg>